<svg width="16" height="16" viewBox="0 0 16 16" fill="none" xmlns="http://www.w3.org/2000/svg">
<g id="bar-chart-big">
<path id="Vector" d="M2 2V14H14M5.33333 6.66667H6.66667C7.03486 6.66667 7.33333 6.96514 7.33333 7.33333V10.6667C7.33333 11.0349 7.03486 11.3333 6.66667 11.3333H5.33333C4.96514 11.3333 4.66667 11.0349 4.66667 10.6667V7.33333C4.66667 6.96514 4.96514 6.66667 5.33333 6.66667ZM10.6667 3.33333H12C12.3682 3.33333 12.6667 3.63181 12.6667 4V10.6667C12.6667 11.0349 12.3682 11.3333 12 11.3333H10.6667C10.2985 11.3333 10 11.0349 10 10.6667V4C10 3.63181 10.2985 3.33333 10.6667 3.33333Z" stroke="#1B5962" stroke-linecap="round" stroke-linejoin="round"/>
</g>
</svg>
